<?xml version="1.0" encoding="utf-8"?>
<!-- Generator: Adobe Illustrator 15.1.0, SVG Export Plug-In . SVG Version: 6.00 Build 0)  -->
<!DOCTYPE svg PUBLIC "-//W3C//DTD SVG 1.1//EN" "http://www.w3.org/Graphics/SVG/1.1/DTD/svg11.dtd">
<svg version="1.1" id="Calque_1" xmlns="http://www.w3.org/2000/svg" xmlns:xlink="http://www.w3.org/1999/xlink" x="0px" y="0px"
	 width="1920px" height="2800px" viewBox="0 0 1920 2800" enable-background="new 0 0 1920 2800" xml:space="preserve">
<rect x="1.5" y="0.939" fill="#C1F1F5" width="1919" height="2809"/>
<path fill="#D4F5F8" d="M296.689-93.856C174.16-93.856,65.874-32.889,0.5,60.361v414.524
	c65.374,93.25,173.66,154.218,296.189,154.218c199.64,0,361.479-161.84,361.479-361.479
	C658.169,67.983,496.329-93.856,296.689-93.856z"/>
<path fill="#D4F5F8" d="M96.813,223.136c-34.176,0-66.513,7.863-95.313,21.867v392.739c28.799,14.004,61.136,21.867,95.313,21.867
	c120.529,0,218.237-97.708,218.237-218.237S217.341,223.136,96.813,223.136z"/>
<path fill="#E1F8FA" d="M93.246,223.136c-32.772,0-63.854,7.231-91.746,20.173v234.013
	c51.053,71.557,127.528,123.727,216.249,143.294c56.648-39.422,93.734-104.997,93.734-179.243
	C311.482,320.844,213.775,223.136,93.246,223.136z"/>
<path fill="#D4F5F8" d="M1920.5,237.202c-1.761-0.041-3.524-0.067-5.295-0.067c-123.429,0-223.488,100.059-223.488,223.488
	s100.06,223.488,223.488,223.488c1.771,0,3.534-0.026,5.295-0.067V237.202z"/>
<path fill="#D4F5F8" d="M1920.5,557.357c-34.98-35.192-83.427-56.983-136.967-56.983c-106.658,0-193.122,86.463-193.122,193.121
	c0,106.658,86.464,193.122,193.122,193.122c53.54,0,101.986-21.792,136.967-56.983V557.357z"/>
<path fill="#E1F8FA" d="M1920.5,556.554c-34.912-34.719-83.021-56.181-136.15-56.181c-30.088,0-58.567,6.883-83.954,19.157
	c25.852,94.845,112.588,164.581,215.626,164.581c1.496,0,2.989-0.019,4.479-0.048V556.554z"/>
<path fill="#D4F5F8" d="M253.162,1348.553c-97.337,0-186.009,37.09-252.662,97.904v554.154
	c66.653,60.814,155.325,97.904,252.662,97.904c207.097,0,374.981-167.885,374.981-374.982
	C628.144,1516.438,460.259,1348.553,253.162,1348.553z"/>
<path fill="#D4F5F8" d="M58.708,1698.527c-20.144,0-39.655,2.699-58.208,7.727v428.525c18.553,5.027,38.063,7.727,58.208,7.727
	c122.602,0,221.989-99.389,221.989-221.99S181.309,1698.527,58.708,1698.527z"/>
<path fill="#E1F8FA" d="M58.708,1698.527c-20.143,0-39.657,2.686-58.208,7.713v294.367c53.539,48.85,121.285,82.393,196.318,93.699
	c51.108-40.67,83.878-103.4,83.878-173.791C280.697,1797.914,181.309,1698.527,58.708,1698.527z"/>
<path fill="#D4F5F8" d="M1920.5,1471.451c-111.392,9.867-198.737,103.406-198.737,217.361s87.346,207.494,198.737,217.361V1471.451z
	"/>
<path fill="#D4F5F8" d="M1920.5,1729.961c-155.756,10.051-278.983,139.541-278.983,297.836
	c0,158.293,123.228,287.783,278.983,297.832V1729.961z"/>
<path fill="#E1F8FA" d="M1920.5,1731.938c-64.344,4.15-123.134,28.688-169.98,67.219c34.574,60.334,97.135,102.574,169.98,109.025
	V1731.938z"/>
</svg>
