<?xml version="1.0" encoding="utf-8"?>
<!-- Generator: Adobe Illustrator 15.1.0, SVG Export Plug-In . SVG Version: 6.00 Build 0)  -->
<!DOCTYPE svg PUBLIC "-//W3C//DTD SVG 1.1//EN" "http://www.w3.org/Graphics/SVG/1.1/DTD/svg11.dtd">
<svg version="1.1" id="Calque_1" xmlns="http://www.w3.org/2000/svg" xmlns:xlink="http://www.w3.org/1999/xlink" x="0px" y="0px"
	 width="1920px" height="1400px" viewBox="0 0 1920 1400" enable-background="new 0 0 1920 1400" xml:space="preserve">
<path fill="#F3FCFD" d="M0,345.412V758.25c73.195-39.74,122.888-117.276,122.888-206.42C122.888,462.688,73.195,385.152,0,345.412z"
	/>
<path fill="#F3FCFD" d="M124.166,5.778C80.526,5.778,38.702,13.552,0,27.785v675.43c38.702,14.233,80.526,22.008,124.166,22.008
	c198.669,0,359.723-161.053,359.723-359.724C483.889,166.831,322.835,5.778,124.166,5.778z"/>
<path fill="#E8F9FB" d="M0,345.412v357.787c17.293,6.361,35.206,11.441,53.63,15.104c42.773-42.516,69.258-101.399,69.258-166.473
	C122.888,462.688,73.195,385.152,0,345.412z"/>
<path fill="#F3FCFD" d="M1920,393.877c-35.664-43.186-89.618-70.71-150.001-70.71c-107.389,0-194.444,87.056-194.444,194.444
	c0,107.388,87.057,194.446,194.444,194.446c60.383,0,114.337-27.525,150.001-70.711V393.877z"/>
<path fill="#F3FCFD" d="M1920,411.92c-17.738-2.689-35.9-4.087-54.39-4.087c-198.668,0-359.723,161.054-359.723,359.722
	c0,198.67,161.054,359.725,359.722,359.725c18.489,0,36.651-1.398,54.391-4.088V411.92L1920,411.92z"/>
<path fill="#E8F9FB" d="M1920,412.167c-18.193-2.836-36.829-4.335-55.816-4.335c-117.33,0-221.537,56.179-287.201,143.1
	c15.806,91.512,95.563,161.125,191.591,161.125c61.199,0,115.784-28.284,151.428-72.481L1920,412.167L1920,412.167z"/>
</svg>
