<?xml version="1.0" encoding="utf-8"?>
<!-- Generator: Adobe Illustrator 15.1.0, SVG Export Plug-In . SVG Version: 6.00 Build 0)  -->
<!DOCTYPE svg PUBLIC "-//W3C//DTD SVG 1.1//EN" "http://www.w3.org/Graphics/SVG/1.1/DTD/svg11.dtd">
<svg version="1.1" id="Calque_1" xmlns="http://www.w3.org/2000/svg" xmlns:xlink="http://www.w3.org/1999/xlink" x="0px" y="0px"
	 width="1920px" height="1289px" viewBox="0 0 1920 1289" enable-background="new 0 0 1920 1289" xml:space="preserve">
<circle fill="#F3FCFD" cx="594.357" cy="542.34" r="359.232"/>
<circle fill="#F3FCFD" cx="343.873" cy="749.333" r="227.239"/>
<path fill="#E3F8FA" d="M343.792,522.095c-39.362,0-76.385,10.012-108.667,27.623c3.413,169.39,124.069,310,284.141,344.004
	c32.34-39.258,51.765-89.555,51.765-144.389C571.03,623.832,469.292,522.095,343.792,522.095z"/>
<path fill="#F3FCFD" d="M1920,439.022c-103.644,5.449-186.008,91.208-186.008,196.21s82.364,190.762,186.008,196.21V439.022z"/>
<path fill="#F3FCFD" d="M1920,734.959c-51.529-39.729-116.097-63.376-186.195-63.376c-168.576,0-305.234,136.657-305.234,305.234
	c0,168.576,136.658,305.233,305.234,305.233c70.099,0,134.666-23.646,186.195-63.376V734.959z"/>
<path fill="#E3F8FA" d="M1920,735.263c-51.203-40.632-115.75-65.171-186.008-65.976c16.646,88.87,93.113,156.652,186.008,159.955
	V735.263z"/>
</svg>
