<?xml version="1.0" encoding="utf-8"?>
<!-- Generator: Adobe Illustrator 15.1.0, SVG Export Plug-In . SVG Version: 6.00 Build 0)  -->
<!DOCTYPE svg PUBLIC "-//W3C//DTD SVG 1.1//EN" "http://www.w3.org/Graphics/SVG/1.1/DTD/svg11.dtd">
<svg version="1.1" id="Calque_1" xmlns="http://www.w3.org/2000/svg" xmlns:xlink="http://www.w3.org/1999/xlink" x="0px" y="0px"
	 width="1920px" height="1080px" viewBox="0 0 1920 1080" enable-background="new 0 0 1920 1080" xml:space="preserve">
<path fill="#F3FCFD" d="M164.38,9.609C105.144,9.609,49.258,24.25,0,50.174v652.333c49.258,25.925,105.144,40.565,164.38,40.565
	c198.398,0,359.232-164.191,359.232-366.732C523.613,173.8,362.779,9.609,164.38,9.609z"/>
<path fill="#F3FCFD" d="M0,352.688v423.978c96.546-20.22,169.158-107.447,169.158-211.988C169.158,460.136,96.546,372.909,0,352.688
	z"/>
<path fill="#E8F9FB" d="M0,353.065v350.323c27.041,14.047,56.054,24.705,86.506,31.418c49.3-39.625,80.958-101.102,80.958-170.128
	C167.464,460.75,95.698,373.947,0,353.065z"/>
<path fill="#F3FCFD" d="M1920,603.906c-23.398-9.803-49.013-15.221-75.87-15.221c-110.447,0-199.983,91.404-199.983,204.158
	c0,112.753,89.536,204.158,199.983,204.158c26.857,0,52.472-5.418,75.87-15.221V603.906z"/>
</svg>
