<?xml version="1.0" encoding="utf-8"?>
<!-- Generator: Adobe Illustrator 15.1.0, SVG Export Plug-In . SVG Version: 6.00 Build 0)  -->
<!DOCTYPE svg PUBLIC "-//W3C//DTD SVG 1.1//EN" "http://www.w3.org/Graphics/SVG/1.1/DTD/svg11.dtd">
<svg version="1.1" id="Calque_1" xmlns="http://www.w3.org/2000/svg" xmlns:xlink="http://www.w3.org/1999/xlink" x="0px" y="0px"
	 width="1920px" height="2000px" viewBox="0 0 1920 2000" enable-background="new 0 0 1920 2000" xml:space="preserve">
<image display="none" overflow="visible" width="1920" height="1080" xlink:href="EB134893.jpg"  transform="matrix(1.3349 0 0 1.3349 -65.4785 0)">
</image>
<path fill="#F3FCFD" d="M144.653,135.683c-51.109,0-99.92,9.832-144.653,27.697v725.04c44.733,17.866,93.544,27.698,144.653,27.698
	c215.511,0,390.216-174.709,390.216-390.219C534.87,310.388,360.165,135.683,144.653,135.683z"/>
<path fill="#F3FCFD" d="M-0.522,533.633v443.23C118.659,973.12,214.13,875.338,214.13,755.248
	C214.13,635.156,118.659,537.376-0.522,533.633z"/>
<path fill="#E8F9FB" d="M0,533.652v354.763c44.733,17.867,93.543,27.703,144.653,27.703c0.114,0,0.227-0.002,0.341-0.002
	c42.58-40.406,69.136-97.535,69.136-160.869C214.13,635.331,118.938,537.665,0,533.652z"/>
<path fill="#F3FCFD" d="M1920,755.185c-23.324-10.838-49.318-16.9-76.732-16.9c-100.688,0-182.312,81.623-182.312,182.311
	s81.624,182.311,182.312,182.311c27.414,0,53.408-6.063,76.732-16.9V755.185z"/>
<path fill="#F3FCFD" d="M1920,882.602c-14.816-2.17-29.967-3.311-45.385-3.311c-171.523,0-310.572,139.047-310.572,310.571
	c0,171.525,139.049,310.572,310.572,310.572c15.418,0,30.568-1.142,45.385-3.311V882.602z"/>
<path fill="#E8F9FB" d="M1920,882.926c-15.509-2.387-31.393-3.635-47.57-3.635c-80.631,0-154.08,30.731-209.287,81.114
	c18.162,81.54,90.926,142.501,177.939,142.501c28.271,0,55.038-6.437,78.918-17.921V882.926z"/>
</svg>
