<?xml version="1.0" encoding="utf-8"?>
<!-- Generator: Adobe Illustrator 15.1.0, SVG Export Plug-In . SVG Version: 6.00 Build 0)  -->
<!DOCTYPE svg PUBLIC "-//W3C//DTD SVG 1.1//EN" "http://www.w3.org/Graphics/SVG/1.1/DTD/svg11.dtd">
<svg version="1.1" id="Calque_1" xmlns="http://www.w3.org/2000/svg" xmlns:xlink="http://www.w3.org/1999/xlink" x="0px" y="0px"
	 width="1920px" height="1345px" viewBox="0 0 1920 1345" enable-background="new 0 0 1920 1345" xml:space="preserve">
<path fill="#F3FCFD" d="M41.748,339.65c-14.615,0-28.901,1.396-42.748,4.033v446.411c13.847,2.637,28.133,4.033,42.748,4.033
	c125.5,0,227.239-101.738,227.239-227.238C268.987,441.388,167.249,339.65,41.748,339.65z"/>
<path fill="#F3FCFD" d="M245.876,0.656C151.375,0.656,65.027,35.547-1,93.145v566.484c66.027,57.598,152.375,92.489,246.876,92.489
	c207.511,0,375.731-168.221,375.731-375.731C621.608,168.876,453.387,0.656,245.876,0.656z"/>
<path fill="#E8F9FB" d="M39.718,339.65c-13.902,0-27.506,1.268-40.718,3.659v318.054c50.189,43.16,111.896,73.305,179.893,85.154
	c53.575-41.57,88.063-106.568,88.063-179.629C266.956,441.388,165.218,339.65,39.718,339.65z"/>
<path fill="#F3FCFD" d="M1922.719,600.06c-102.317,15.551-180.72,103.897-180.72,210.559s78.402,195.007,180.72,210.559V600.06z"/>
<path fill="#F3FCFD" d="M1920,737.404c-146.778,23.254-258.998,150.348-258.998,303.668c0,153.318,112.22,280.414,258.998,303.666
	V737.404z"/>
<path fill="#E8F9FB" d="M1920,737.318c-69.682,10.919-131.601,45.236-177.469,94.664c9.578,96.166,83.119,173.494,177.469,188.843
	V737.318z"/>
</svg>
