<?xml version="1.0" encoding="utf-8"?>
<!-- Generator: Adobe Illustrator 15.1.0, SVG Export Plug-In . SVG Version: 6.00 Build 0)  -->
<!DOCTYPE svg PUBLIC "-//W3C//DTD SVG 1.1//EN" "http://www.w3.org/Graphics/SVG/1.1/DTD/svg11.dtd">
<svg version="1.1" id="Calque_1" xmlns="http://www.w3.org/2000/svg" xmlns:xlink="http://www.w3.org/1999/xlink" x="0px" y="0px"
	 width="795px" height="779px" viewBox="0 0 795 779" enable-background="new 0 0 795 779" xml:space="preserve">
<path fill="#292930" d="M542.276,36.027c0,0-15.853-52.059-65.197-30.039c-16.191,7.226-21.758,9.709-21.928,9.785L341.528,66.477
	l0.038,0.083l-123.282,55.014c0,0-52.125,18.151-27.544,69.965c24.582,51.813,246.136,551.572,246.136,551.572
	s15.853,52.06,65.197,30.039c16.19-7.226,21.758-9.71,21.928-9.785l107.17-47.823l-0.037-0.084l129.735-57.895
	c0,0,52.125-18.151,27.544-69.964C763.831,535.785,542.276,36.027,542.276,36.027z"/>
<path fill="#FFFFFF" d="M530.788,66.034c0,0-14.919-48.018-58.433-28.601c-14.277,6.371-19.187,8.563-19.336,8.628l-100.191,44.71
	l0.034,0.077L244.153,139.36c0,0-46.045,15.823-23.37,63.753c22.676,47.931,227.581,509.992,227.581,509.992
	s14.919,48.016,58.433,28.598c14.277-6.37,19.186-8.562,19.336-8.628l94.501-42.171l-0.034-0.077l114.4-51.05
	c0,0,46.045-15.825,23.369-63.754S530.788,66.034,530.788,66.034z"/>
<path fill="#72E0E7" d="M536.109,77.959c0,0-13.967-45.881-57.479-26.463c-14.276,6.372-19.186,8.562-19.336,8.628l-100.192,44.71
	l0.033,0.072l-108.709,48.512c0,0-45.963,16.007-24.3,61.669C247.79,260.749,443.043,701.18,443.043,701.18
	s13.966,45.878,57.479,26.461c14.277-6.371,19.187-8.563,19.336-8.628l94.503-42.171l-0.033-0.073l114.399-51.051
	c0,0,45.961-16.011,24.3-61.671C731.361,518.388,536.109,77.959,536.109,77.959z"/>
<path fill="#0FCAD7" d="M589.244,319.947l-35.86-80.36c-4.278-9.589-8.689-5.979-8.689-5.979l-101.162,45.144l-0.03-0.068
	l-106.388,47.475c-7.306,3.261-1.813,10.664-1.813,10.664l35.861,80.361c4.279,9.589,8.69,5.978,8.69,5.978l101.163-45.143
	l0.03,0.066l106.388-47.475C594.738,327.351,589.244,319.947,589.244,319.947z"/>
<path fill="#F2FCFD" d="M441.869,307.473c0.422,0.946-0.003,2.054-0.949,2.477l-65.293,29.138c-0.946,0.422-2.055-0.003-2.477-0.948
	l0,0c-0.422-0.946,0.002-2.055,0.948-2.477l65.293-29.137C440.338,306.103,441.447,306.527,441.869,307.473L441.869,307.473z"/>
<path fill="#F2FCFD" d="M528.496,267.256c0.434,0.94,0.021,2.054-0.92,2.487l-64.961,29.871c-0.94,0.434-2.055,0.021-2.486-0.92l0,0
	c-0.434-0.94-0.021-2.054,0.92-2.486l64.961-29.872C526.951,265.902,528.064,266.315,528.496,267.256L528.496,267.256z"/>
<path fill="#F2FCFD" d="M533.945,279.484c0.438,0.94-0.938,2.502-3.068,3.492l-147.146,68.34c-2.131,0.99-4.212,1.031-4.648,0.092
	l0,0c-0.436-0.938,0.938-2.503,3.068-3.493l147.146-68.338C531.429,278.586,533.51,278.545,533.945,279.484L533.945,279.484z"/>
<path fill="#F2FCFD" d="M539.447,291.813c0.437,0.94-0.938,2.503-3.069,3.492l-147.146,68.341c-2.131,0.989-4.212,1.03-4.648,0.091
	l0,0c-0.436-0.938,0.938-2.502,3.068-3.493l147.146-68.339C536.93,290.914,539.011,290.873,539.447,291.813L539.447,291.813z"/>
<path fill="#F2FCFD" d="M545.051,304.368c0.437,0.94-0.938,2.502-3.068,3.492l-147.146,68.341c-2.131,0.989-4.212,1.03-4.648,0.092
	l0,0c-0.436-0.938,0.938-2.502,3.068-3.492l147.146-68.34C542.533,303.47,544.613,303.429,545.051,304.368L545.051,304.368z"/>
<rect x="396.076" y="370.96" transform="matrix(-0.9039 0.4277 -0.4277 -0.9039 972.7491 539.1454)" fill="#80E3EA" width="59.481" height="15.751"/>
<polygon fill="#91A8F6" points="422.172,463.955 431.945,435.14 620.527,411.944 409.268,547.099 416.771,495.203 548.302,434.136 
	"/>
<polygon fill="#445EEA" points="422.172,463.955 440.053,484.395 548.302,434.136 "/>
<polygon fill="#445EEA" points="455.807,517.325 472.598,528.693 620.527,411.944 "/>
<g>
	<g>
		<path fill="none" stroke="#445EEA" stroke-width="8" stroke-linecap="round" stroke-linejoin="round" d="M511.328,705.9
			c0,0-5.108,2.28-14.016,5.328"/>
		
			<path fill="none" stroke="#445EEA" stroke-width="8" stroke-linecap="round" stroke-linejoin="round" stroke-dasharray="30.1172,30.1172" d="
			M468.355,719.466c-56.56,13.034-155.859,18.601-216.24-77.482c0,0-28.862-63.043-46.833-129.487
			c0,0-57.771-199.801-192.346-71.124c0,0-58.785,115.297,131.505,124.556c0,0,102.133-2.166,191.216-46.055"/>
		<path fill="none" stroke="#445EEA" stroke-width="8" stroke-linecap="round" stroke-linejoin="round" d="M349.017,512.911
			c4.371-2.407,8.695-4.925,12.958-7.557"/>
	</g>
</g>
<path fill="#2F56F7" d="M509.792,132.924l25.537,57.227c0,0,5.733,8.758-2.214,13.033L328.227,298.63c0,0-10.617,7.292-16.931-5.221
	l-23.771-53.271c0,0-5.869-9.062,6.036-15.104l206.819-95.212C500.379,129.823,507.075,126.836,509.792,132.924z"/>
<path fill="#4E69FF" d="M509.526,132.319l23.009,51.56c0,0,5.264,7.845-2.432,11.938L332.036,287.82c0,0-10.32,6.907-16.048-4.349
	l-23.481-53.026c0,0-1.817-4.48,8.197-8.886l199.906-91.837C500.609,129.722,507.079,126.834,509.526,132.319z"/>
<rect x="299.48" y="181.842" transform="matrix(-0.9132 0.4075 -0.4075 -0.9132 887.8403 243.5768)" fill="none" width="236.999" height="69"/>
<g enable-background="new    ">
	<path fill="#FFFFFF" d="M342.9,248.921c-0.694,2.719-1.994,5.137-3.9,7.252c-1.907,2.115-4.3,3.816-7.18,5.101
		c-3.282,1.464-6.634,2.027-10.058,1.687c-3.425-0.339-6.528-1.492-9.314-3.463c-2.786-1.968-4.903-4.576-6.353-7.824
		c-1.435-3.215-1.958-6.524-1.57-9.93c0.388-3.405,1.598-6.495,3.633-9.27c2.034-2.775,4.691-4.894,7.974-6.358
		c2.745-1.225,5.551-1.845,8.415-1.858c2.864-0.014,5.534,0.592,8.009,1.817c2.474,1.225,4.561,3.023,6.262,5.396l-7.285,5.539
		c-1.563-2.153-3.395-3.493-5.498-4.021c-2.102-0.527-4.275-0.291-6.519,0.71c-1.741,0.777-3.154,1.931-4.239,3.457
		c-1.085,1.529-1.714,3.245-1.889,5.149c-0.174,1.905,0.158,3.794,0.995,5.67s2.025,3.393,3.566,4.551
		c1.542,1.16,3.243,1.847,5.104,2.059c1.861,0.214,3.663-0.068,5.404-0.845c2.21-0.986,3.813-2.454,4.811-4.405
		c0.996-1.951,1.233-4.274,0.713-6.974l8.854-2.023C343.573,243.342,343.595,246.203,342.9,248.921z"/>
	<path fill="#FFFFFF" d="M361.575,218.093c2.611,0.181,4.983,0.999,7.119,2.455c2.135,1.457,3.778,3.474,4.929,6.052
		s1.558,5.157,1.224,7.735c-0.335,2.579-1.307,4.899-2.916,6.962c-1.609,2.063-3.669,3.655-6.181,4.775
		c-2.545,1.136-5.131,1.617-7.757,1.444c-2.628-0.173-5.02-0.991-7.18-2.457s-3.814-3.487-4.965-6.066
		c-1.15-2.578-1.547-5.152-1.188-7.721c0.359-2.57,1.351-4.889,2.977-6.96c1.626-2.07,3.711-3.674,6.256-4.81
		C356.405,218.383,358.966,217.913,361.575,218.093z M365.318,237.141c0.689-0.971,1.101-2.077,1.229-3.319
		c0.128-1.241-0.091-2.498-0.658-3.771c-0.568-1.272-1.357-2.275-2.367-3.009c-1.01-0.733-2.107-1.167-3.291-1.303
		c-1.185-0.133-2.296,0.031-3.333,0.494c-1.105,0.493-2.012,1.229-2.719,2.207c-0.708,0.979-1.127,2.09-1.255,3.331
		c-0.129,1.242,0.092,2.499,0.659,3.771c0.568,1.273,1.359,2.284,2.377,3.034c1.018,0.751,2.124,1.182,3.317,1.291
		c1.193,0.11,2.343-0.082,3.447-0.575C363.763,238.829,364.626,238.113,365.318,237.141z"/>
	<path fill="#FFFFFF" d="M393.307,203.362c1.862,0.214,3.558,0.933,5.087,2.156c1.531,1.225,2.76,2.875,3.686,4.951l6.903,15.47
		l-7.986,3.563l-6.142-13.762c-0.656-1.473-1.592-2.49-2.807-3.053c-1.215-0.562-2.458-0.559-3.73,0.009
		c-1.641,0.732-2.664,1.881-3.069,3.448c-0.406,1.565-0.077,3.537,0.983,5.914l5.223,11.703l-8.037,3.586l-11.251-25.213
		l8.036-3.586l1.076,2.411c0.522-1.438,1.313-2.725,2.373-3.859c1.06-1.135,2.376-2.054,3.949-2.756
		C389.542,203.476,391.444,203.149,393.307,203.362z"/>
	<path fill="#FFFFFF" d="M429.999,216.891c-0.93,0.796-2.064,1.494-3.402,2.091c-3.182,1.42-6.032,1.667-8.552,0.744
		s-4.512-3.025-5.977-6.307l-4.258-9.543l-4.571,2.04l-2.847-6.379l4.571-2.04l-3.317-7.434l8.036-3.586l3.317,7.434l7.434-3.317
		l2.847,6.379l-7.434,3.317l3.899,8.739c1.091,2.444,2.757,3.166,5.001,2.165c0.569-0.253,1.146-0.622,1.734-1.105
		c0.588-0.482,1.082-0.994,1.484-1.535l4.682,5.499C431.812,215.149,430.929,216.095,429.999,216.891z"/>
	<path fill="#FFFFFF" d="M454.186,205.767l-0.896-2.009c-1.221,2.754-3.422,4.84-6.603,6.259c-2.209,0.986-4.512,1.341-6.904,1.063
		c-2.392-0.276-4.596-1.19-6.612-2.74c-2.017-1.549-3.6-3.613-4.75-6.191c-1.151-2.578-1.626-5.126-1.425-7.646
		c0.201-2.52,0.993-4.77,2.377-6.753c1.384-1.982,3.182-3.467,5.392-4.453c3.181-1.419,6.203-1.664,9.067-0.734l-0.896-2.01
		l8.036-3.586l11.251,25.214L454.186,205.767z M447.99,200.25c0.689-0.971,1.1-2.077,1.229-3.319
		c0.128-1.241-0.092-2.499-0.659-3.771c-0.553-1.238-1.339-2.233-2.355-2.984c-1.019-0.75-2.119-1.192-3.303-1.327
		c-1.185-0.134-2.329,0.046-3.434,0.539c-1.775,0.792-2.959,2.053-3.552,3.783c-0.594,1.73-0.464,3.55,0.388,5.458
		c0.867,1.942,2.138,3.262,3.815,3.959c1.675,0.697,3.4,0.65,5.176-0.142C446.401,201.953,447.299,201.222,447.99,200.25z"/>
	<path fill="#FFFFFF" d="M480.298,185.261c0.626-1.162,0.811-2.57,0.556-4.223l8.101-1.688c0.479,2.155,0.428,4.246-0.152,6.271
		c-0.582,2.027-1.594,3.853-3.036,5.48s-3.201,2.904-5.276,3.831c-2.512,1.121-5.064,1.587-7.658,1.399
		c-2.593-0.187-4.961-1.018-7.104-2.491c-2.143-1.472-3.797-3.516-4.962-6.127c-1.151-2.578-1.559-5.156-1.224-7.735
		c0.334-2.579,1.294-4.904,2.879-6.977s3.633-3.668,6.145-4.789c3.113-1.39,6.255-1.728,9.425-1.014
		c3.169,0.714,5.755,2.37,7.759,4.969l-6.728,5.171c-0.992-1.324-2.126-2.153-3.398-2.488c-1.274-0.335-2.581-0.204-3.921,0.394
		c-1.808,0.807-2.998,2.052-3.573,3.733c-0.574,1.682-0.45,3.443,0.371,5.285c0.837,1.875,2.069,3.152,3.696,3.832
		c1.629,0.679,3.347,0.614,5.154-0.192C478.689,187.304,479.673,186.424,480.298,185.261z"/>
	<path fill="#FFFFFF" d="M512.722,179.978c-0.932,0.796-2.065,1.494-3.404,2.09c-3.182,1.42-6.031,1.667-8.552,0.744
		c-2.52-0.923-4.511-3.025-5.976-6.307l-4.259-9.543l-4.57,2.04l-2.847-6.379l4.57-2.04l-3.316-7.433l8.036-3.586l3.316,7.433
		l7.434-3.317l2.847,6.379l-7.434,3.317l3.9,8.74c1.091,2.444,2.757,3.166,5.001,2.165c0.569-0.254,1.146-0.622,1.734-1.105
		c0.588-0.482,1.082-0.994,1.483-1.535l4.683,5.499C514.533,178.236,513.649,179.182,512.722,179.978z"/>
</g>
<path fill="#FFFFFF" d="M527.711,184.528c0.788,1.767-0.004,3.835-1.77,4.623l-201.514,89.925c-1.766,0.787-3.835-0.006-4.623-1.771
	l0,0c-0.788-1.766,0.004-3.835,1.77-4.623l201.513-89.924C524.854,181.97,526.924,182.763,527.711,184.528L527.711,184.528z"/>
<image display="none" overflow="visible" enable-background="new    " width="337" height="31" xlink:href="Groupe1.png"  transform="matrix(0.7316 -0.3265 0.3265 0.7316 245.9941 174.9607)">
</image>
<g>
	<path d="M254.818,193.137l-1.196-2.715l10.901-4.804c0.576-0.253,0.954-0.517,1.136-0.79c0.182-0.272,0.164-0.654-0.053-1.146
		l-0.343-0.779c-0.198-0.449-0.465-0.712-0.801-0.79c-0.337-0.078-0.785,0.006-1.346,0.254l-6.84,3.014
		c-0.801,0.353-1.496,0.57-2.088,0.655c-0.591,0.086-1.107,0.045-1.548-0.121c-0.442-0.166-0.824-0.45-1.144-0.854
		c-0.32-0.403-0.616-0.914-0.889-1.531l-0.314-0.715c-0.322-0.73-0.521-1.389-0.595-1.977c-0.074-0.586-0.02-1.109,0.164-1.567
		c0.184-0.457,0.503-0.874,0.956-1.25c0.455-0.376,1.04-0.722,1.756-1.037l4.462-1.966l1.196,2.715l-4.168,1.837
		c-0.49,0.216-0.811,0.47-0.959,0.762c-0.147,0.292-0.095,0.725,0.158,1.299l0.205,0.463c0.197,0.449,0.443,0.722,0.737,0.819
		s0.7,0.03,1.22-0.198l6.714-2.959c0.8-0.353,1.506-0.583,2.12-0.694c0.612-0.112,1.158-0.097,1.64,0.043
		c0.479,0.141,0.899,0.408,1.259,0.803c0.357,0.396,0.68,0.915,0.964,1.561l0.501,1.137c0.297,0.674,0.471,1.279,0.524,1.817
		c0.053,0.538-0.032,1.032-0.252,1.48c-0.222,0.45-0.577,0.867-1.07,1.251c-0.493,0.385-1.139,0.753-1.938,1.105L254.818,193.137z"
		/>
	<path d="M278.685,182.619c-1.052,0.463-1.968,0.762-2.746,0.896c-0.779,0.133-1.464,0.101-2.055-0.1
		c-0.591-0.201-1.112-0.574-1.563-1.122c-0.45-0.548-0.876-1.277-1.278-2.189l-0.678-1.536c-0.401-0.913-0.654-1.723-0.757-2.431
		c-0.104-0.709-0.029-1.349,0.222-1.92s0.688-1.099,1.313-1.584c0.625-0.484,1.463-0.958,2.516-1.422l8.25-3.636l1.188,2.693
		l-8.146,3.589c-0.491,0.217-0.879,0.43-1.163,0.639c-0.285,0.209-0.48,0.442-0.586,0.698c-0.104,0.256-0.124,0.554-0.059,0.893
		c0.065,0.34,0.201,0.741,0.405,1.204l0.594,1.348c0.197,0.448,0.397,0.809,0.602,1.079c0.202,0.271,0.437,0.457,0.698,0.559
		c0.263,0.102,0.57,0.122,0.919,0.06c0.35-0.062,0.77-0.201,1.261-0.418l8.166-3.599l1.169,2.652L278.685,182.619z"/>
	<path d="M302.131,172.286l-2.801-6.356c-0.21-0.477-0.422-0.853-0.635-1.128c-0.214-0.274-0.45-0.459-0.71-0.554
		s-0.564-0.104-0.915-0.024c-0.351,0.08-0.766,0.224-1.241,0.434l-6.251,2.755l3.84,8.714l-3.136,1.382l-6.65-15.091l3.136-1.382
		l1.623,3.684l6.336-2.792c1.065-0.47,1.992-0.773,2.777-0.91c0.786-0.137,1.475-0.104,2.065,0.095
		c0.591,0.2,1.113,0.578,1.567,1.132c0.453,0.554,0.882,1.287,1.283,2.2l2.848,6.461L302.131,172.286z"/>
	<path d="M314.106,167.009c-1.052,0.463-1.968,0.762-2.746,0.896c-0.779,0.133-1.464,0.101-2.055-0.1
		c-0.591-0.201-1.112-0.574-1.563-1.122c-0.45-0.548-0.876-1.277-1.278-2.189l-0.678-1.536c-0.401-0.913-0.654-1.723-0.757-2.431
		c-0.104-0.709-0.029-1.349,0.222-1.92c0.251-0.571,0.688-1.099,1.313-1.584c0.625-0.484,1.463-0.958,2.516-1.422l3.809-1.679
		c1.066-0.47,1.988-0.772,2.769-0.906c0.778-0.134,1.466-0.097,2.06,0.11c0.594,0.208,1.117,0.589,1.571,1.142
		c0.453,0.555,0.882,1.288,1.283,2.2l0.668,1.516c0.401,0.912,0.652,1.718,0.753,2.42c0.099,0.702,0.023,1.338-0.227,1.91
		c-0.251,0.571-0.689,1.099-1.313,1.584c-0.626,0.484-1.471,0.961-2.537,1.432L314.106,167.009z M317.473,157.935
		c-0.21-0.477-0.422-0.853-0.635-1.128c-0.214-0.274-0.461-0.455-0.742-0.54c-0.28-0.086-0.617-0.08-1.01,0.017
		c-0.393,0.099-0.869,0.271-1.431,0.518l-2.968,1.308c-0.561,0.247-1.006,0.482-1.336,0.702c-0.331,0.221-0.559,0.464-0.685,0.729
		c-0.126,0.264-0.16,0.568-0.101,0.911c0.058,0.343,0.193,0.753,0.403,1.23l0.594,1.348c0.21,0.477,0.419,0.849,0.631,1.117
		c0.21,0.268,0.454,0.444,0.736,0.531c0.28,0.085,0.614,0.084,1.004-0.003c0.388-0.088,0.863-0.256,1.424-0.503l2.968-1.308
		c0.562-0.248,1.009-0.487,1.344-0.717c0.333-0.231,0.563-0.479,0.689-0.744c0.126-0.266,0.161-0.565,0.106-0.901
		c-0.057-0.336-0.189-0.742-0.399-1.219L317.473,157.935z"/>
	<path d="M332.206,159.032c-1.052,0.463-1.968,0.763-2.746,0.896c-0.779,0.133-1.464,0.101-2.055-0.1
		c-0.591-0.201-1.112-0.574-1.563-1.121c-0.45-0.548-0.876-1.277-1.278-2.189l-0.678-1.536c-0.401-0.912-0.654-1.723-0.757-2.431
		c-0.104-0.709-0.029-1.35,0.222-1.921c0.251-0.571,0.688-1.099,1.313-1.584c0.625-0.484,1.463-0.958,2.516-1.422l3.809-1.679
		c1.066-0.47,1.988-0.772,2.769-0.906c0.778-0.134,1.466-0.097,2.06,0.11c0.594,0.208,1.117,0.589,1.571,1.142
		c0.453,0.555,0.882,1.288,1.283,2.2l0.668,1.516c0.401,0.912,0.652,1.718,0.753,2.42c0.099,0.702,0.023,1.338-0.227,1.91
		c-0.251,0.571-0.689,1.099-1.313,1.584c-0.626,0.484-1.471,0.962-2.537,1.432L332.206,159.032z M335.572,149.958
		c-0.21-0.477-0.422-0.853-0.635-1.128c-0.214-0.274-0.461-0.455-0.742-0.54c-0.28-0.085-0.617-0.08-1.01,0.018
		c-0.393,0.098-0.869,0.27-1.431,0.518l-2.968,1.308c-0.561,0.247-1.006,0.482-1.336,0.702c-0.331,0.221-0.559,0.465-0.685,0.729
		s-0.16,0.568-0.101,0.911c0.059,0.343,0.193,0.753,0.403,1.229l0.594,1.348c0.21,0.477,0.42,0.849,0.631,1.117
		c0.21,0.268,0.454,0.443,0.736,0.53c0.28,0.085,0.614,0.084,1.004-0.003c0.388-0.088,0.863-0.256,1.424-0.503l2.968-1.308
		c0.562-0.248,1.009-0.487,1.344-0.717c0.333-0.232,0.563-0.479,0.689-0.744c0.126-0.266,0.161-0.565,0.106-0.901
		c-0.057-0.336-0.189-0.742-0.399-1.219L335.572,149.958z"/>
	<path d="M344.94,153.42l-6.65-15.091l3.198-1.409l6.65,15.091L344.94,153.42z"/>
	<path d="M366.449,143.942c-1.052,0.463-1.968,0.762-2.746,0.896c-0.779,0.133-1.464,0.101-2.055-0.1
		c-0.592-0.201-1.112-0.574-1.563-1.122c-0.451-0.547-0.877-1.277-1.278-2.189l-0.677-1.536c-0.402-0.912-0.655-1.723-0.758-2.431
		c-0.104-0.709-0.029-1.349,0.222-1.92c0.251-0.571,0.688-1.099,1.313-1.584c0.624-0.484,1.464-0.958,2.515-1.422l3.811-1.679
		c1.065-0.47,1.988-0.772,2.768-0.906s1.466-0.097,2.06,0.11c0.594,0.208,1.117,0.589,1.571,1.142
		c0.453,0.555,0.881,1.288,1.283,2.2l0.668,1.516c0.402,0.912,0.652,1.718,0.753,2.42c0.099,0.702,0.024,1.338-0.227,1.91
		s-0.689,1.099-1.313,1.584c-0.626,0.484-1.471,0.962-2.537,1.432L366.449,143.942z M369.815,134.867
		c-0.21-0.477-0.422-0.853-0.635-1.128c-0.214-0.274-0.461-0.455-0.742-0.54c-0.28-0.086-0.617-0.08-1.009,0.018
		c-0.394,0.098-0.871,0.27-1.432,0.518l-2.968,1.308c-0.562,0.247-1.007,0.482-1.337,0.702c-0.33,0.221-0.558,0.465-0.684,0.729
		c-0.127,0.265-0.16,0.568-0.101,0.911c0.058,0.343,0.193,0.753,0.403,1.229l0.594,1.348c0.21,0.477,0.42,0.849,0.631,1.117
		c0.21,0.268,0.455,0.443,0.736,0.53c0.279,0.085,0.614,0.084,1.004-0.003c0.389-0.088,0.862-0.256,1.424-0.503l2.968-1.308
		c0.562-0.248,1.009-0.487,1.344-0.717c0.333-0.232,0.563-0.479,0.689-0.744c0.126-0.266,0.161-0.565,0.106-0.901
		c-0.057-0.336-0.189-0.742-0.399-1.219L369.815,134.867z"/>
	<path d="M379.184,138.329l-5.296-12.018c-0.507-1.15-0.559-2.083-0.153-2.798c0.405-0.714,1.226-1.345,2.461-1.889l3.641-1.604
		l0.983,2.231l-3.157,1.391c-0.393,0.173-0.631,0.356-0.712,0.552c-0.081,0.196-0.042,0.475,0.12,0.84l0.223,0.505l4.146-1.827
		l1.122,2.547l-4.146,1.827l3.904,8.86L379.184,138.329z"/>
</g>
<g>
	<path fill="#FFFFFF" d="M386.082,112.337l9.789,22.211l108.136-47.655l-9.789-22.211L386.082,112.337z M401.853,116.302
		l-3.599,1.586l3.905,8.86l-3.199,1.41l-3.905-8.86l-1.6,0.705l-1.123-2.547l1.6-0.705l-1.42-3.221l3.199-1.41l1.419,3.221
		l3.6-1.585L401.853,116.302z M420.604,113.341c0.366,0.828,0.591,1.558,0.677,2.191c0.086,0.632,0.006,1.211-0.238,1.738
		c-0.246,0.527-0.671,1.012-1.271,1.453c-0.602,0.441-1.408,0.883-2.419,1.33l-6.166,2.717c-0.827,0.366-1.539,0.596-2.134,0.689
		c-0.596,0.096-1.107,0.082-1.539-0.039c-0.429-0.12-0.788-0.338-1.08-0.654c-0.289-0.316-0.537-0.707-0.741-1.169l-0.473-1.074
		c-0.211-0.476-0.338-0.928-0.382-1.352c-0.045-0.424,0.023-0.831,0.203-1.221c0.181-0.389,0.497-0.763,0.951-1.123
		c0.453-0.359,1.072-0.711,1.858-1.058l8.44-3.72l-0.112-0.253c-0.321-0.729-0.684-1.153-1.087-1.269
		c-0.402-0.115-0.955-0.019-1.656,0.291l-3.115,1.372l-0.982-2.229l3.115-1.374c0.911-0.401,1.724-0.659,2.437-0.772
		s1.348-0.087,1.906,0.077c0.559,0.165,1.048,0.468,1.47,0.911c0.422,0.442,0.793,1.029,1.114,1.758L420.604,113.341z
		 M429.182,114.839l-3.198,1.409l-6.649-15.09l3.198-1.409L429.182,114.839z M445.469,102.233l-11.724,5.166l0.231,0.527
		c0.155,0.351,0.307,0.618,0.455,0.805c0.148,0.186,0.323,0.305,0.523,0.359c0.201,0.055,0.432,0.049,0.696-0.016
		c0.264-0.066,0.579-0.18,0.943-0.34l3.705-1.633l1.047,2.378l-3.704,1.633c-1.81,0.798-3.254,1.023-4.327,0.675
		c-1.075-0.347-1.945-1.28-2.613-2.795l-1.16-2.631c-0.364-0.827-0.591-1.561-0.68-2.2c-0.09-0.639-0.011-1.219,0.238-1.739
		c0.248-0.521,0.668-1.002,1.26-1.447c0.592-0.445,1.393-0.89,2.403-1.335l5.514-2.43c0.814-0.359,1.524-0.581,2.133-0.664
		c0.607-0.083,1.13-0.058,1.567,0.075c0.436,0.135,0.802,0.368,1.099,0.697c0.296,0.331,0.543,0.72,0.742,1.17L445.469,102.233z
		 M465.509,98.831l-3.136,1.381l-2.802-6.356c-0.21-0.477-0.42-0.849-0.631-1.117c-0.21-0.266-0.448-0.446-0.716-0.539
		c-0.266-0.092-0.579-0.1-0.939-0.025c-0.36,0.075-0.794,0.223-1.3,0.447l-3.409,1.502c-0.491,0.216-0.886,0.433-1.185,0.647
		c-0.299,0.216-0.508,0.454-0.627,0.716c-0.119,0.263-0.151,0.562-0.095,0.897c0.055,0.335,0.188,0.742,0.398,1.219l2.801,6.356
		l-3.136,1.381l-2.847-6.46c-0.402-0.913-0.655-1.723-0.758-2.431c-0.104-0.709-0.029-1.349,0.222-1.92
		c0.251-0.571,0.689-1.098,1.313-1.583s1.462-0.959,2.515-1.423l3.81-1.679c1.065-0.47,1.989-0.772,2.768-0.906
		c0.779-0.133,1.464-0.1,2.055,0.1c0.591,0.201,1.114,0.577,1.566,1.132c0.454,0.554,0.882,1.288,1.283,2.2L465.509,98.831z
		 M472.527,85.156l-3.599,1.585l3.904,8.86l-3.198,1.41l-3.906-8.86l-1.599,0.705l-1.122-2.547l1.599-0.705l-1.419-3.221l3.199-1.41
		l1.419,3.221l3.6-1.585L472.527,85.156z M491.071,83.946c0.247,0.561,0.406,1.056,0.479,1.485c0.071,0.429,0.016,0.827-0.166,1.191
		c-0.183,0.366-0.5,0.711-0.951,1.035c-0.452,0.325-1.078,0.664-1.878,1.017l-9.808,4.322l-1.085-2.463l9.408-4.146
		c0.421-0.185,0.685-0.384,0.792-0.599c0.105-0.214,0.072-0.518-0.102-0.911l-0.167-0.378c-0.186-0.421-0.381-0.648-0.589-0.683
		c-0.209-0.034-0.501,0.032-0.881,0.199l-6.398,2.82c-0.645,0.284-1.195,0.451-1.651,0.502c-0.455,0.05-0.851-0.001-1.187-0.155
		c-0.336-0.153-0.624-0.4-0.865-0.738c-0.24-0.337-0.474-0.758-0.696-1.264l-0.38-0.862c-0.217-0.492-0.349-0.936-0.398-1.333
		c-0.049-0.397-0.003-0.756,0.14-1.079c0.144-0.322,0.396-0.623,0.761-0.901c0.363-0.277,0.854-0.551,1.471-0.824l4.336-1.911
		l1.049,2.378l-3.579,1.576c-0.309,0.137-0.504,0.29-0.588,0.462c-0.085,0.171-0.061,0.404,0.068,0.698l0.231,0.525
		c0.143,0.323,0.302,0.513,0.479,0.57c0.174,0.056,0.403,0.022,0.684-0.101l6.188-2.727c0.729-0.322,1.353-0.524,1.867-0.61
		c0.517-0.084,0.965-0.055,1.346,0.086c0.381,0.143,0.712,0.399,0.993,0.77c0.279,0.371,0.554,0.857,0.819,1.46L491.071,83.946z
		 M498.113,83.33c0.148,0.337,0.175,0.615,0.078,0.833s-0.349,0.417-0.755,0.596l-1.031,0.455c-0.393,0.173-0.702,0.222-0.929,0.146
		c-0.227-0.077-0.414-0.283-0.562-0.62l-0.761-1.726c-0.143-0.323-0.167-0.596-0.074-0.823c0.094-0.224,0.337-0.424,0.729-0.598
		l1.031-0.455c0.407-0.179,0.725-0.227,0.955-0.145c0.229,0.084,0.415,0.287,0.557,0.61L498.113,83.33z"/>
	<path fill="#FFFFFF" d="M408.285,118.18c-0.14,0.253-0.11,0.606,0.088,1.054l0.343,0.78c0.18,0.406,0.416,0.637,0.709,0.693
		c0.292,0.056,0.641-0.006,1.049-0.186l5.892-2.597c0.365-0.16,0.669-0.329,0.911-0.502c0.241-0.173,0.415-0.371,0.517-0.593
		c0.104-0.221,0.14-0.484,0.106-0.788s-0.143-0.666-0.328-1.086l-0.427-0.968l-8.103,3.571
		C408.677,117.718,408.425,117.926,408.285,118.18z"/>
	<path fill="#FFFFFF" d="M439.091,99.74l-5.219,2.299c-0.394,0.174-0.715,0.337-0.967,0.489c-0.251,0.154-0.429,0.328-0.535,0.526
		c-0.105,0.196-0.142,0.431-0.106,0.7c0.035,0.271,0.144,0.608,0.322,1.014l0.269,0.61l8.587-3.784l-0.649-1.473
		c-0.167-0.379-0.373-0.589-0.618-0.633C439.929,99.446,439.567,99.53,439.091,99.74z"/>
</g>
</svg>
